<svg xmlns="http://www.w3.org/2000/svg" width="19.891" height="19.676" viewBox="0 0 19.891 19.676">
  <g id="Group_1686" data-name="Group 1686" transform="translate(-7196.545 4549.963)">
    <path id="Path_1846" data-name="Path 1846" d="M7212.766-4542.714a6.656,6.656,0,0,0-.787-1.379l1.352-1.784-3.1-2.356-1.291,1.759a6.971,6.971,0,0,0-3.067-.427l-.867-2.061-3.592,1.511.866,2.06a7.5,7.5,0,0,0-1.968,2.544l-2.257-.269-.5,3.874,2.215.284a6.694,6.694,0,0,0,.431,1.529,6.778,6.778,0,0,0,.785,1.38l-1.354,1.785,3.1,2.356,1.418-1.812a7.47,7.47,0,0,0,3.2.373l.867,2.06,3.593-1.51-.867-2.061a6.933,6.933,0,0,0,1.842-2.491l2.189.295.472-3.859-2.229-.279A6.779,6.779,0,0,0,7212.766-4542.714Z" fill="none" stroke="#d11e2a" stroke-linecap="round" stroke-linejoin="round" stroke-width="2"/>
    <circle id="Ellipse_1201" data-name="Ellipse 1201" cx="2.923" cy="2.923" r="2.923" transform="translate(7203.555 -4542.994)" fill="none" stroke="#d11e2a" stroke-linecap="round" stroke-linejoin="round" stroke-width="2"/>
  </g>
</svg>
