<svg xmlns="http://www.w3.org/2000/svg" xmlns:xlink="http://www.w3.org/1999/xlink" width="14" height="17" viewBox="0 0 14 17">
  <defs>
    <clipPath id="clip-path">
      <rect id="Rectangle_3792" data-name="Rectangle 3792" width="14" height="17" transform="translate(0.167 0)" fill="none" stroke="#0a720d" stroke-width="1"/>
    </clipPath>
  </defs>
  <g id="Group_1800" data-name="Group 1800" transform="translate(-0.167 0)">
    <g id="Group_1799" data-name="Group 1799" clip-path="url(#clip-path)">
      <path id="Path_1855" data-name="Path 1855" d="M13.958,16.792H.5V.5H9.708l4.25,4.25ZM9.708.5V4.75h4.25M8.644,13.382H6.887V9.708m-3.727,0,1.758,3.675m0-3.675L3.16,13.382m6.854-.8a.879.879,0,1,0,1.757-.06.978.978,0,0,0-.877-.937.986.986,0,0,1-.88-.939.879.879,0,1,1,1.757-.06" transform="translate(-0.146 -0.146)" fill="none" stroke="#0a720d" stroke-linecap="round" stroke-linejoin="round" stroke-width="1"/>
    </g>
  </g>
</svg>
